sit_stand0002_filtered
version=1
nRows=46
nColumns=19
inDegrees=no
endheader
time	ground_force_r_vx	ground_force_r_vy	ground_force_r_vz	ground_force_r_px	ground_force_r_py	ground_force_r_pz	ground_torque_r_x	ground_torque_r_y	ground_torque_r_z	ground_force_l_vx	ground_force_l_vy	ground_force_l_vz	ground_force_l_px	ground_force_l_py	ground_force_l_pz	ground_torque_l_x	ground_torque_l_y	ground_torque_l_z
0.9866666666666666	-7.38739635443038	48.494701	-15.278026071729956	0.19785265256962037	0.0	0.044739021270044255	-8.505996	-0.754602	1.064406	2.56030364556962	1.524458	-4.0080850717299565	0.20599190156962033	0.0	-0.38321401372995645	0.096391	-0.426379	-0.213226
0.9883333333333335	-7.400010354430379	49.103175	-16.499601071729955	0.19317799256962032	0.0	0.05821467127004354	-7.954501	-0.993324	0.971666	2.57104864556962	2.744402	-3.0916090717299562	0.20599190156962033	0.0	-0.38321401372995645	0.831507	-0.662426	-0.273715
0.99	-7.3862933544303795	49.715871	-14.974724071729957	0.19583683256962037	0.0	0.05639050527004397	-8.138768	-0.873016	0.972125	1.3393836455696202	0.91468	-3.9950390717299564	0.20599190156962033	0.0	-0.38321401372995645	0.459928	-0.17829	-0.335327
0.9916666666666665	-7.994793354430379	48.494268	-14.967012071729956	0.19293353756962028	0.0	0.05231373127004435	-8.137461	-0.99522	1.06349	2.2486646455696206	2.135459	-4.614509071729956	0.20599190156962033	0.0	-0.38321401372995645	-0.089296	-0.184487	-0.457655
0.9933333333333334	-7.38850035443038	47.273532	-15.581328071729956	0.2052077805696204	0.0	0.04017825027004385	-8.509233	-0.388687	1.248074	2.56736964556962	2.134304	-3.3972690717299563	0.20599190156962033	0.0	-0.38321401372995645	0.099072	-0.670455	-0.151988
0.9949999999999999	-7.37497535443038	46.054708	-14.358824071729956	0.1970963775696204	0.0	0.03939644927004338	-8.322899	-0.752846	1.064136	1.3393836455696202	0.91468	-3.9950390717299564	0.20599190156962033	0.0	-0.38321401372995645	0.278072	-0.302184	-0.091171
0.9966666666666668	-7.683781354430379	48.495657	-14.359616071729956	0.1904337585696203	0.0	0.05607151727004389	-7.953058	-1.115668	1.154584	1.6479276455696203	0.914284	-3.693269071729956	0.20599190156962033	0.0	-0.38321401372995645	-0.090913	-0.061972	0.09156
0.9983333333333333	-7.37478335443038	47.886227	-14.056451071729956	0.2004284905696203	0.0	0.06533775727004354	-7.408995	-0.621585	0.788313	1.9527926455696203	0.303789	-3.6971590717299563	0.20599190156962033	0.0	-0.38321401372995645	0.093682	-0.182254	-0.213428
1.0000000000000002	-6.77707335443038	48.495603	-15.283879071729956	0.19037442956962036	0.0	0.056131994270043784	-7.953468	-1.11525	0.879926	2.2588256455696203	2.1347	-3.6990380717299565	0.20599190156962033	0.0	-0.38321401372995645	0.462521	-0.422214	-0.090984
1.0016666666666667	-7.689632354430379	48.494719	-14.969938071729956	0.19812565956962036	0.0	0.07113271227004336	-7.224454	-0.742172	0.970959	1.3365806455696203	2.135635	-4.2991900717299565	0.20599190156962033	0.0	-0.38321401372995645	0.276747	-0.180171	-0.152307
1.0033333333333332	-7.38739635443038	48.494701	-15.278026071729956	0.19796117956962034	0.0	0.05605924227004433	-7.956842	-0.749195	0.972042	1.6389346455696203	3.356448	-4.606729071729957	0.20599190156962033	0.0	-0.38321401372995645	-0.090797	-0.062173	-0.15258
1.0050000000000001	-7.077680354430379	45.443401	-15.276305071729956	0.19429580156962023	0.0	0.0491503202700434	-7.773121	-0.868946	0.605373	2.2658916455696203	2.744545	-3.088222071729956	0.20599190156962033	0.0	-0.38321401372995645	1.009182	-0.172142	-0.274034
1.0066666666666666	-6.75899435443038	44.225029	-14.056726071729956	0.18836366656962034	0.0	0.05683290427004373	-7.22149	-1.107808	0.604186	2.2480806455696203	0.914756	-4.615514071729956	0.20599190156962033	0.0	-0.38321401372995645	0.465377	-0.666591	-0.395957
1.0083333333333335	-7.386678354430379	46.052831	-15.579469071729957	0.19732573856962032	0.0	0.06332048727004391	-7.224454	-0.742172	0.970959	1.0379056455696203	1.524921	-3.6859920717299564	0.20599190156962033	0.0	-0.38321401372995645	0.459899	-0.178239	-0.274292
1.01	-7.67903335443038	47.275426	-14.052595071729955	0.19523917156962034	0.0	0.07501168827004356	-6.8575	-0.860307	0.695573	1.6544106455696204	0.303426	-3.0834580717299565	0.20599190156962033	0.0	-0.38321401372995645	0.64697	-0.542245	-0.090797
1.0116666666666665	-7.6735673544303795	43.613325	-14.047018071729957	0.20478999656962038	0.0	0.04600665127004344	-7.594432	-0.379211	0.788958	3.18165464556962	3.354467	-3.0978810717299563	0.20599190156962033	0.0	-0.38321401372995645	0.096362	-0.426329	-0.152191
1.0133333333333334	-7.063244354430379	43.614227	-14.052870071729956	0.19080046156962038	0.0	0.050336793270043145	-7.405621	-0.987639	0.696197	2.2508836455696204	-0.306199	-4.311363071729956	0.20599190156962033	0.0	-0.38321401372995645	0.46255	-0.422264	-0.152019
1.015	-6.75515735443038	43.615147	-13.750635071729956	0.20208700156962023	0.0	0.06279433627004405	-6.861421	-0.493695	0.421478	2.2588256455696203	2.1347	-3.6990380717299565	0.20599190156962033	0.0	-0.38321401372995645	0.827413	-0.296187	-0.212983
1.0166666666666668	-7.677403354430379	44.223206	-14.353109071729957	0.19670503556962038	0.0	0.05677481327004408	-7.224728	-0.741893	0.787854	1.9601516455696204	1.523986	-3.0858400717299563	0.20599190156962033	0.0	-0.38321401372995645	-0.269826	-0.430394	-0.152363
1.0183333333333333	-6.7668593544303794	43.613271	-14.971281071729956	0.19081912156962033	0.0	0.054599218270044325	-7.222114	-0.986301	0.970584	1.3362886455696203	1.525284	-4.299693071729957	0.20599190156962033	0.0	-0.38321401372995645	0.461283	-0.300352	-0.335225
1.0199999999999998	-6.764126354430379	41.78222	-14.968492071729957	0.1986556235696203	0.0	0.05167764527004337	-7.042801	-0.618073	0.787771	1.6346716455696204	1.525647	-4.9133940717299565	0.20599190156962033	0.0	-0.38321401372995645	1.013275	-0.538381	-0.334765
1.0216666666666667	-6.1547143544303795	42.393473	-14.975274071729956	0.19589501756962036	0.0	0.049802403270043705	-7.224591	-0.742033	0.879407	2.8620736455696205	1.524568	-4.316629071729956	0.20599190156962033	0.0	-0.38321401372995645	1.011921	-0.416318	-0.334867
1.0233333333333332	-5.834925354430379	42.396269	-13.452394071729957	0.19887278656962026	0.0	0.06260985527004337	-6.676881	-0.614283	0.604125	2.56088764556962	2.745161	-4.007080071729956	0.20599190156962033	0.0	-0.38321401372995645	-0.08529	-0.550575	-0.335281
1.0250000000000001	-4.616294354430379	41.787254	-13.768330071729956	0.20149605656962033	0.0	0.06031721927004341	-6.678051	-0.492218	0.604313	1.3427706455696202	0.914427	-3.689882071729956	0.20599190156962033	0.0	-0.38321401372995645	0.097805	-0.548543	-0.335195
1.0266666666666666	-6.13826435443038	41.175118	-13.447608071729956	0.18955153456962037	0.0	0.053605411270043035	-6.856603	-0.982093	0.51228	2.2458616455696205	3.356414	-4.918660071729956	0.20599190156962033	0.0	-0.38321401372995645	0.642935	-0.176107	-0.152135
1.0283333333333335	-6.13644235443038	39.954418	-13.445749071729956	0.20122938956962033	0.0	0.06674604127004446	-6.128487	-0.48723	0.786606	1.9536686455696204	2.134843	-3.6956510717299564	0.20599190156962033	0.0	-0.38321401372995645	0.457131	0.065987	-0.152424
1.03	-5.21894335443038	40.56659	-13.150296071729956	0.2042097005696203	0.0	0.05545615827004369	-6.678948	-0.370432	0.787605	1.9564716455696203	0.913888	-3.3914990717299567	0.20599190156962033	0.0	-0.38321401372995645	0.27816	-0.302335	-0.274276
1.0316666666666665	-4.9110493544303795	38.735991	-13.150434071729956	0.18492575356962027	0.0	0.052617076270043306	-6.489786	-1.100088	0.145341	2.2486646455696206	2.135459	-4.614509071729956	0.20599190156962033	0.0	-0.38321401372995645	0.279485	-0.424347	-0.21314
1.0333333333333334	-4.918722354430379	39.955753	-13.762616071729957	0.19480655656962031	0.0	0.043930080270043526	-7.041768	-0.739998	0.696031	2.8722346455696206	1.523809	-3.4011580717299563	0.20599190156962033	0.0	-0.38321401372995645	0.090913	0.061972	-0.09156
1.035	-5.211270354430379	39.346828	-12.538114071729957	0.2008857395696203	0.0	0.05500451727004396	-6.495637	-0.489765	0.146279	1.6488036455696204	2.745338	-3.6917610717299563	0.20599190156962033	0.0	-0.38321401372995645	1.009094	-0.171992	-0.090928
1.0366666666666668	-4.914886354430379	39.345872	-13.456525071729956	0.20391787656962035	0.0	0.05039791127004367	-6.679221	-0.370154	0.6045	2.2664756455696207	3.965248	-3.0872160717299564	0.20599190156962033	0.0	-0.38321401372995645	0.279485	-0.424347	-0.21314
1.0383333333333333	-4.29506735443038	36.906311	-12.848336071729957	0.18344156356962038	0.0	0.03936336627004344	-6.672473	-1.102262	0.420269	2.2551466455696203	1.524601	-4.0046980717299565	0.20599190156962033	0.0	-0.38321401372995645	0.640342	0.067818	-0.396478
1.0399999999999998	-5.22498735443038	38.734132	-14.062991071729956	0.20069876256962027	0.0	0.05254082727004317	-6.495227	-0.490183	0.420937	2.2630886455696206	3.965501	-3.3923730717299563	0.20599190156962033	0.0	-0.38321401372995645	-0.088058	-0.306349	-0.213413
1.0416666666666667	-4.908123354430379	38.73646	-12.845272071729957	0.21331592756962026	0.0	0.05704445427004323	-6.316948	-3e-05	0.329864	2.8756216455696206	1.523556	-3.0960020717299566	0.20599190156962033	0.0	-0.38321401372995645	0.278189	-0.302385	-0.335311
1.0433333333333332	-4.597303354430379	36.906329	-12.540248071729955	0.20028091956962035	0.0	0.06892904627004359	-5.579743	-0.481405	0.419584	1.6454166455696204	2.74559	-3.996918071729956	0.20599190156962033	0.0	-0.38321401372995645	0.278131	-0.302284	-0.213241
1.0450000000000002	-5.21640335443038	36.90402	-13.449880071729956	0.2001915405696203	0.0	0.054131926270043706	-6.128897	-0.486811	0.511948	2.5631066455696203	0.303503	-3.7039330717299563	0.20599190156962033	0.0	-0.38321401372995645	0.645761	-0.420433	-0.396074
1.0466666666666666	-3.6829223544303797	35.686513	-12.852330071729956	0.1961061245696203	0.0	0.038206101270043646	-6.494057	-0.612248	0.420749	2.8620736455696205	1.524568	-4.316629071729956	0.20599190156962033	0.0	-0.38321401372995645	0.280928	-0.546561	-0.396144
1.0483333333333336	-4.6013323544303795	35.684691	-13.148712071729957	0.19960643356962038	0.0	0.03819967327004381	-6.495501	-0.489905	0.237832	2.2480806455696203	0.914756	-4.615514071729956	0.20599190156962033	0.0	-0.38321401372995645	-0.088029	-0.306399	-0.274448
1.05	-4.592555354430379	35.686098	-12.233228071729958	0.20663958556962025	0.0	0.058564556270043866	-5.76518	-0.239031	0.42023	2.55720864556962	2.135063	-4.312739071729957	0.20599190156962033	0.0	-0.38321401372995645	0.09642	-0.42643	-0.274261
1.0516666666666665	-3.9793073544303796	35.687469	-11.933919071729957	0.21005285956962028	0.0	0.06363312127004317	-5.583527	-0.114932	0.237042	3.17429664556962	2.13427	-3.7092000717299562	0.20599190156962033	0.0	-0.38321401372995645	0.093652	-0.182204	-0.152393
1.0533333333333335	-4.28849735443038	34.46538	-12.539456071729957	0.21003391656962034	0.0	0.06348515327004378	-5.400294	-0.113316	0.328324	1.9505736455696203	2.745447	-4.000305071729956	0.20599190156962033	0.0	-0.38321401372995645	0.6485	-0.664609	-0.456906
1.055	-3.3671623544303797	34.467671	-11.937912071729956	0.20994908956962033	0.0	0.06342977027004348	-5.400704	-0.112897	0.053666	1.6417376455696204	2.135492	-4.3025770717299565	0.20599190156962033	0.0	-0.38321401372995645	-0.088058	-0.306349	-0.213413
1.0566666666666669	-3.988084354430379	35.686062	-12.849403071729956	0.19632990756962032	0.0	0.05871769427004381	-5.76208	-0.604807	0.145009	2.2548546455696203	0.91425	-4.0052000717299565	0.20599190156962033	0.0	-0.38321401372995645	0.641638	-0.054144	-0.274307
1.0583333333333333	-4.2777063544303795	35.077606	-11.319740071729957	0.19969729656962032	0.0	0.07140324527004349	-5.214096	-0.477335	0.052832	1.9432156455696203	1.525251	-4.611624071729956	0.20599190156962033	0.0	-0.38321401372995645	0.279485	-0.424347	-0.21314
1.0599999999999998	-4.891147354430379	33.244716	-11.921422071729957	0.20259694956962027	0.0	0.052271259270043835	-5.580913	-0.35934	0.419771	1.9466026455696204	1.524998	-4.306467071729957	0.20599190156962033	0.0	-0.38321401372995645	0.458544	-0.056177	-0.274393
1.0616666666666668	-3.3662513544303794	33.857321	-11.936983071729957	0.20984527356962035	0.0	0.05521459727004352	-5.583254	-0.115211	0.420147	2.2455696455696206	2.746063	-4.919163071729956	0.20599190156962033	0.0	-0.38321401372995645	0.459841	-0.178139	-0.152221
